<svg height="24" viewBox="0 0 24 24" width="24" xmlns="http://www.w3.org/2000/svg"><path d="m13.8427634 2.7c5.2204416 0 9.1572366 3.66627273 9.1572366 8.5276136 0 3.7539026-2.862459 6.5845166-6.6584602 6.5845166-3.2869292 0-5.0067442-2.3185931-5.0067442-4.6090346 0-2.3950047 1.9232766-4.34360501 4.2871083-4.34360501.5660997 0 1.0233662.12043815 1.3087138.22246133.0964389.03439578.1509541.13140952.1377968.22869274l-.0162211.05790349-.5142943 1.18025155c-.0417785.0960965-.1426738.1488014-.2444046.1308098-.1382871-.0243417-.3160549-.046355-.506983-.046355-1.2447926 0-2.2577141 1.0263701-2.2577141 2.2874782 0 1.3311697 1.1647866 2.3734147 2.6514771 2.3734147 2.1944196 0 3.9131901-1.7771506 3.9131901-4.0460021 0-3.02365374-2.2946881-5.13544885-5.580364-5.13544885-4.0765443 0-7.3933453 3.3608382-7.3933453 7.49150685 0 2.4065323 1.12557141 4.5516755 2.87121445 5.9233019l-4.96035245 3.1812742c-1.88344607-2.1256033-3.0306173-4.9339804-3.0306173-8.0087794 0-6.61668989 5.31256341-12 11.8427634-12z" fill-rule="evenodd"/></svg>